<svg width="18" height="17" viewBox="0 0 18 17" fill="none" xmlns="http://www.w3.org/2000/svg">
<g clip-path="url(#clip0_1_750)">
<path fill-rule="evenodd" clip-rule="evenodd" d="M7.98762 1.55568C8.10102 1.20576 8.42719 0.969238 8.79439 0.969238C9.16159 0.969238 9.48667 1.20576 9.60007 1.55568L11.0224 5.9383C11.0645 6.06682 11.1466 6.17913 11.2557 6.25905C11.3659 6.33897 11.4987 6.38219 11.6337 6.38219L16.2421 6.38001C16.6093 6.38001 16.9343 6.61653 17.0477 6.96645C17.1611 7.31529 17.0369 7.69763 16.7399 7.91363L13.0118 10.6212C12.9016 10.7011 12.8195 10.8134 12.7774 10.9419C12.7353 11.0715 12.7364 11.2109 12.7774 11.3394L14.203 15.7209C14.3164 16.0709 14.1922 16.4532 13.8952 16.6692C13.5982 16.8852 13.1954 16.8852 12.8984 16.6692L9.1724 13.9595C9.06224 13.8795 8.93047 13.8364 8.79439 13.8364C8.65831 13.8364 8.52654 13.8795 8.41638 13.9595L4.68932 16.6692C4.39232 16.8852 3.99053 16.8852 3.69353 16.6692C3.39545 16.4532 3.27128 16.0709 3.38576 15.7209L4.81028 11.3394C4.8524 11.2109 4.8524 11.0715 4.81028 10.9419C4.76924 10.8134 4.68715 10.7011 4.57699 10.6212L0.84884 7.91363C0.55184 7.69763 0.426549 7.31529 0.539949 6.96645C0.654428 6.61653 0.979518 6.38001 1.34672 6.38001L5.95399 6.38219C6.09007 6.38219 6.22291 6.33897 6.33199 6.25905C6.44215 6.17913 6.52424 6.06682 6.56528 5.9383L7.98762 1.55568Z" fill="#F6BB06"/>
</g>
<defs>
<clipPath id="clip0_1_750">
<rect width="17" height="15.9375" fill="white" transform="translate(0.499969 0.969727)"/>
</clipPath>
</defs>
</svg>
