<svg width="30" height="29" viewBox="0 0 30 29" fill="none" xmlns="http://www.w3.org/2000/svg">
<g clip-path="url(#clip0_1_641)">
<path fill-rule="evenodd" clip-rule="evenodd" d="M13.2134 1.09349C13.4135 0.47598 13.9891 0.0585938 14.6371 0.0585938C15.2851 0.0585938 15.8587 0.47598 16.0589 1.09349L18.5689 8.82752C18.6432 9.05432 18.7881 9.25253 18.9806 9.39356C19.175 9.5346 19.4094 9.61086 19.6476 9.61086L27.78 9.60702C28.428 9.60702 29.0017 10.0244 29.2018 10.6419C29.4019 11.2575 29.1827 11.9322 28.6586 12.3134L22.0795 17.0914C21.8851 17.2325 21.7403 17.4307 21.6659 17.6575C21.5916 17.8862 21.5935 18.132 21.6659 18.3588L24.1817 26.091C24.3818 26.7085 24.1627 27.3832 23.6385 27.7644C23.1144 28.1455 22.4035 28.1455 21.8794 27.7644L15.3041 22.9825C15.1097 22.8415 14.8772 22.7653 14.6371 22.7653C14.3969 22.7653 14.1644 22.8415 13.97 22.9825L7.39283 27.7644C6.86871 28.1455 6.15967 28.1455 5.63555 27.7644C5.10953 27.3832 4.8904 26.7085 5.09243 26.091L7.60629 18.3588C7.68061 18.132 7.68061 17.8862 7.60629 17.6575C7.53386 17.4307 7.38901 17.2325 7.19461 17.0914L0.615514 12.3134C0.0913964 11.9322 -0.129706 11.2575 0.0704113 10.6419C0.272435 10.0244 0.846123 9.60702 1.49412 9.60702L9.62459 9.61086C9.86474 9.61086 10.0992 9.5346 10.2917 9.39356C10.4861 9.25253 10.6309 9.05432 10.7033 8.82752L13.2134 1.09349Z" fill="#F6BB06"/>
</g>
<defs>
<clipPath id="clip0_1_641">
<rect width="30" height="28.125" fill="white" transform="translate(0 0.0595703)"/>
</clipPath>
</defs>
</svg>
