<svg width="17" height="17" viewBox="0 0 17 17" fill="none" xmlns="http://www.w3.org/2000/svg">
<g clip-path="url(#clip0_1_693)">
<path fill-rule="evenodd" clip-rule="evenodd" d="M7.48762 1.55568C7.60102 1.20576 7.92719 0.969238 8.29439 0.969238C8.66159 0.969238 8.98667 1.20576 9.10007 1.55568L10.5224 5.9383C10.5645 6.06682 10.6466 6.17913 10.7557 6.25905C10.8659 6.33897 10.9987 6.38219 11.1337 6.38219L15.7421 6.38001C16.1093 6.38001 16.4343 6.61653 16.5477 6.96645C16.6611 7.31529 16.5369 7.69763 16.2399 7.91363L12.5118 10.6212C12.4016 10.7011 12.3195 10.8134 12.2774 10.9419C12.2353 11.0715 12.2364 11.2109 12.2774 11.3394L13.703 15.7209C13.8164 16.0709 13.6922 16.4532 13.3952 16.6692C13.0982 16.8852 12.6954 16.8852 12.3984 16.6692L8.6724 13.9595C8.56224 13.8795 8.43047 13.8364 8.29439 13.8364C8.15831 13.8364 8.02654 13.8795 7.91638 13.9595L4.18932 16.6692C3.89232 16.8852 3.49053 16.8852 3.19353 16.6692C2.89545 16.4532 2.77128 16.0709 2.88576 15.7209L4.31028 11.3394C4.3524 11.2109 4.3524 11.0715 4.31028 10.9419C4.26924 10.8134 4.18715 10.7011 4.07699 10.6212L0.34884 7.91363C0.0518401 7.69763 -0.0734514 7.31529 0.0399486 6.96645C0.154428 6.61653 0.479518 6.38001 0.846718 6.38001L5.45399 6.38219C5.59007 6.38219 5.72291 6.33897 5.83199 6.25905C5.94215 6.17913 6.02424 6.06682 6.06528 5.9383L7.48762 1.55568Z" fill="#F6BB06"/>
</g>
<defs>
<clipPath id="clip0_1_693">
<rect width="17" height="15.9375" fill="white" transform="translate(-3.05176e-05 0.969727)"/>
</clipPath>
</defs>
</svg>
