<svg width="20" height="21" viewBox="0 0 20 21" fill="none" xmlns="http://www.w3.org/2000/svg">
<g clip-path="url(#clip0_1_786)">
<mask id="mask0_1_786" style="mask-type:luminance" maskUnits="userSpaceOnUse" x="0" y="1" width="19" height="20">
<path d="M18.5416 9.30322H9.99998V12.8449H14.9166C14.4583 15.0949 12.5416 16.3866 9.99998 16.3866C6.99998 16.3866 4.58331 13.9699 4.58331 10.9699C4.58331 7.96989 6.99998 5.55322 9.99998 5.55322C11.2916 5.55322 12.4583 6.01156 13.375 6.76156L16.0416 4.09489C14.4166 2.67822 12.3333 1.80322 9.99998 1.80322C4.91665 1.80322 0.833313 5.88656 0.833313 10.9699C0.833313 16.0532 4.91665 20.1366 9.99998 20.1366C14.5833 20.1366 18.75 16.8032 18.75 10.9699C18.75 10.4282 18.6666 9.84489 18.5416 9.30322Z" fill="white"/>
</mask>
<g mask="url(#mask0_1_786)">
<path d="M-3.05176e-05 16.3866V5.55322L7.0833 10.9699L-3.05176e-05 16.3866Z" fill="#FBBC05"/>
</g>
<mask id="mask1_1_786" style="mask-type:luminance" maskUnits="userSpaceOnUse" x="0" y="1" width="19" height="20">
<path d="M18.5416 9.30322H9.99998V12.8449H14.9166C14.4583 15.0949 12.5416 16.3866 9.99998 16.3866C6.99998 16.3866 4.58331 13.9699 4.58331 10.9699C4.58331 7.96989 6.99998 5.55322 9.99998 5.55322C11.2916 5.55322 12.4583 6.01156 13.375 6.76156L16.0416 4.09489C14.4166 2.67822 12.3333 1.80322 9.99998 1.80322C4.91665 1.80322 0.833313 5.88656 0.833313 10.9699C0.833313 16.0532 4.91665 20.1366 9.99998 20.1366C14.5833 20.1366 18.75 16.8032 18.75 10.9699C18.75 10.4282 18.6666 9.84489 18.5416 9.30322Z" fill="white"/>
</mask>
<g mask="url(#mask1_1_786)">
<path d="M-3.05176e-05 5.55306L7.0833 10.9697L9.99997 8.42806L20 6.80306V0.969727H-3.05176e-05V5.55306Z" fill="#EA4335"/>
</g>
<mask id="mask2_1_786" style="mask-type:luminance" maskUnits="userSpaceOnUse" x="0" y="1" width="19" height="20">
<path d="M18.5416 9.30322H9.99998V12.8449H14.9166C14.4583 15.0949 12.5416 16.3866 9.99998 16.3866C6.99998 16.3866 4.58331 13.9699 4.58331 10.9699C4.58331 7.96989 6.99998 5.55322 9.99998 5.55322C11.2916 5.55322 12.4583 6.01156 13.375 6.76156L16.0416 4.09489C14.4166 2.67822 12.3333 1.80322 9.99998 1.80322C4.91665 1.80322 0.833313 5.88656 0.833313 10.9699C0.833313 16.0532 4.91665 20.1366 9.99998 20.1366C14.5833 20.1366 18.75 16.8032 18.75 10.9699C18.75 10.4282 18.6666 9.84489 18.5416 9.30322Z" fill="white"/>
</mask>
<g mask="url(#mask2_1_786)">
<path d="M-3.05176e-05 16.3864L12.5 6.80306L15.7916 7.21973L20 0.969727V20.9697H-3.05176e-05V16.3864Z" fill="#34A853"/>
</g>
<mask id="mask3_1_786" style="mask-type:luminance" maskUnits="userSpaceOnUse" x="0" y="1" width="19" height="20">
<path d="M18.5416 9.30322H9.99998V12.8449H14.9166C14.4583 15.0949 12.5416 16.3866 9.99998 16.3866C6.99998 16.3866 4.58331 13.9699 4.58331 10.9699C4.58331 7.96989 6.99998 5.55322 9.99998 5.55322C11.2916 5.55322 12.4583 6.01156 13.375 6.76156L16.0416 4.09489C14.4166 2.67822 12.3333 1.80322 9.99998 1.80322C4.91665 1.80322 0.833313 5.88656 0.833313 10.9699C0.833313 16.0532 4.91665 20.1366 9.99998 20.1366C14.5833 20.1366 18.75 16.8032 18.75 10.9699C18.75 10.4282 18.6666 9.84489 18.5416 9.30322Z" fill="white"/>
</mask>
<g mask="url(#mask3_1_786)">
<path d="M20 20.9699L7.08332 10.9699L5.41666 9.71989L20 5.55322V20.9699Z" fill="#4285F4"/>
</g>
</g>
<defs>
<clipPath id="clip0_1_786">
<rect width="20" height="20" fill="white" transform="translate(-3.05176e-05 0.969727)"/>
</clipPath>
</defs>
</svg>
