<svg width="21" height="21" viewBox="0 0 21 21" fill="none" xmlns="http://www.w3.org/2000/svg">
<g clip-path="url(#clip0_1_729)">
<mask id="mask0_1_729" style="mask-type:luminance" maskUnits="userSpaceOnUse" x="1" y="1" width="19" height="20">
<path d="M19.0416 9.30322H10.5V12.8449H15.4166C14.9583 15.0949 13.0416 16.3866 10.5 16.3866C7.49997 16.3866 5.08331 13.9699 5.08331 10.9699C5.08331 7.96989 7.49997 5.55322 10.5 5.55322C11.7916 5.55322 12.9583 6.01156 13.875 6.76156L16.5416 4.09489C14.9166 2.67822 12.8333 1.80322 10.5 1.80322C5.41664 1.80322 1.33331 5.88656 1.33331 10.9699C1.33331 16.0532 5.41664 20.1366 10.5 20.1366C15.0833 20.1366 19.25 16.8032 19.25 10.9699C19.25 10.4282 19.1666 9.84489 19.0416 9.30322Z" fill="white"/>
</mask>
<g mask="url(#mask0_1_729)">
<path d="M0.499969 16.3866V5.55322L7.5833 10.9699L0.499969 16.3866Z" fill="#FBBC05"/>
</g>
<mask id="mask1_1_729" style="mask-type:luminance" maskUnits="userSpaceOnUse" x="1" y="1" width="19" height="20">
<path d="M19.0416 9.30322H10.5V12.8449H15.4166C14.9583 15.0949 13.0416 16.3866 10.5 16.3866C7.49997 16.3866 5.08331 13.9699 5.08331 10.9699C5.08331 7.96989 7.49997 5.55322 10.5 5.55322C11.7916 5.55322 12.9583 6.01156 13.875 6.76156L16.5416 4.09489C14.9166 2.67822 12.8333 1.80322 10.5 1.80322C5.41664 1.80322 1.33331 5.88656 1.33331 10.9699C1.33331 16.0532 5.41664 20.1366 10.5 20.1366C15.0833 20.1366 19.25 16.8032 19.25 10.9699C19.25 10.4282 19.1666 9.84489 19.0416 9.30322Z" fill="white"/>
</mask>
<g mask="url(#mask1_1_729)">
<path d="M0.499969 5.55306L7.5833 10.9697L10.5 8.42806L20.5 6.80306V0.969727H0.499969V5.55306Z" fill="#EA4335"/>
</g>
<mask id="mask2_1_729" style="mask-type:luminance" maskUnits="userSpaceOnUse" x="1" y="1" width="19" height="20">
<path d="M19.0416 9.30322H10.5V12.8449H15.4166C14.9583 15.0949 13.0416 16.3866 10.5 16.3866C7.49997 16.3866 5.08331 13.9699 5.08331 10.9699C5.08331 7.96989 7.49997 5.55322 10.5 5.55322C11.7916 5.55322 12.9583 6.01156 13.875 6.76156L16.5416 4.09489C14.9166 2.67822 12.8333 1.80322 10.5 1.80322C5.41664 1.80322 1.33331 5.88656 1.33331 10.9699C1.33331 16.0532 5.41664 20.1366 10.5 20.1366C15.0833 20.1366 19.25 16.8032 19.25 10.9699C19.25 10.4282 19.1666 9.84489 19.0416 9.30322Z" fill="white"/>
</mask>
<g mask="url(#mask2_1_729)">
<path d="M0.499969 16.3864L13 6.80306L16.2916 7.21973L20.5 0.969727V20.9697H0.499969V16.3864Z" fill="#34A853"/>
</g>
<mask id="mask3_1_729" style="mask-type:luminance" maskUnits="userSpaceOnUse" x="1" y="1" width="19" height="20">
<path d="M19.0416 9.30322H10.5V12.8449H15.4166C14.9583 15.0949 13.0416 16.3866 10.5 16.3866C7.49997 16.3866 5.08331 13.9699 5.08331 10.9699C5.08331 7.96989 7.49997 5.55322 10.5 5.55322C11.7916 5.55322 12.9583 6.01156 13.875 6.76156L16.5416 4.09489C14.9166 2.67822 12.8333 1.80322 10.5 1.80322C5.41664 1.80322 1.33331 5.88656 1.33331 10.9699C1.33331 16.0532 5.41664 20.1366 10.5 20.1366C15.0833 20.1366 19.25 16.8032 19.25 10.9699C19.25 10.4282 19.1666 9.84489 19.0416 9.30322Z" fill="white"/>
</mask>
<g mask="url(#mask3_1_729)">
<path d="M20.5 20.9699L7.58331 10.9699L5.91664 9.71989L20.5 5.55322V20.9699Z" fill="#4285F4"/>
</g>
</g>
<defs>
<clipPath id="clip0_1_729">
<rect width="20" height="20" fill="white" transform="translate(0.499969 0.969727)"/>
</clipPath>
</defs>
</svg>
