<svg width="111" height="36" viewBox="0 0 111 36" fill="none" xmlns="http://www.w3.org/2000/svg">
<g clip-path="url(#clip0_1_671)">
<path d="M14.25 13.1811V16.888H23.0862C22.8276 18.957 22.1379 20.4656 21.0603 21.5432C19.7672 22.8363 17.7414 24.2587 14.25 24.2587C8.81896 24.2587 4.55172 19.8621 4.55172 14.4311C4.55172 9.00007 8.77586 4.56041 14.25 4.56041C17.181 4.56041 19.3362 5.72421 20.931 7.18972L23.5172 4.60352C21.319 2.49145 18.3448 0.853516 14.25 0.853516C6.7931 0.853516 0.5 6.9311 0.5 14.388C0.5 21.8449 6.7931 27.9225 14.25 27.9225C18.3017 27.9225 21.319 26.5863 23.6897 24.1294C26.1466 21.6725 26.8793 18.2673 26.8793 15.4656C26.8793 14.6035 26.8362 13.8277 26.6638 13.138H14.25V13.1811Z" fill="#4285F4"/>
<path d="M37.9569 10.1641C33.1293 10.1641 29.1638 13.8279 29.1638 18.9141C29.1638 23.9572 33.0862 27.6641 37.9569 27.6641C42.8276 27.6641 46.75 23.9572 46.75 18.9141C46.7069 13.8279 42.7845 10.1641 37.9569 10.1641ZM37.9569 24.2158C35.3276 24.2158 33.0431 22.0175 33.0431 18.9141C33.0431 15.7675 35.3276 13.6123 37.9569 13.6123C40.5862 13.6123 42.8707 15.7675 42.8707 18.9141C42.8707 22.0175 40.5862 24.2158 37.9569 24.2158Z" fill="#EA4335"/>
<path d="M80.931 12.1037H80.8017C79.9397 11.0692 78.3017 10.1641 76.1897 10.1641C71.8362 10.1641 68 13.9572 68 18.9141C68 23.8279 71.7931 27.6641 76.1897 27.6641C78.3017 27.6641 79.9397 26.7158 80.8017 25.6813H80.931V26.8882C80.931 30.2072 79.1207 32.0175 76.2759 32.0175C73.9483 32.0175 72.4828 30.3365 71.8793 28.9141L68.5603 30.2934C69.5086 32.621 72.0517 35.4658 76.319 35.4658C80.8017 35.4658 84.6379 32.8365 84.6379 26.371V10.6382H81.0172V12.1037H80.931ZM76.5345 24.2158C73.9052 24.2158 71.8793 21.9744 71.8793 18.9141C71.8793 15.8106 73.9052 13.6123 76.5345 13.6123C79.1638 13.6123 81.1897 15.8537 81.1897 18.9572C81.2328 21.9744 79.1638 24.2158 76.5345 24.2158Z" fill="#4285F4"/>
<path d="M57.5259 10.1641C52.6983 10.1641 48.7328 13.8279 48.7328 18.9141C48.7328 23.9572 52.6552 27.6641 57.5259 27.6641C62.3966 27.6641 66.319 23.9572 66.319 18.9141C66.2759 13.8279 62.3534 10.1641 57.5259 10.1641ZM57.5259 24.2158C54.8966 24.2158 52.6121 22.0175 52.6121 18.9141C52.6121 15.7675 54.8966 13.6123 57.5259 13.6123C60.1552 13.6123 62.4397 15.7675 62.4397 18.9141C62.4397 22.0175 60.1552 24.2158 57.5259 24.2158Z" fill="#FBBC05"/>
<path d="M87.6121 1.19824H91.4052V27.6207H87.6121V1.19824Z" fill="#34A853"/>
<path d="M103.043 24.2157C101.103 24.2157 99.7242 23.3105 98.819 21.5863L110.5 16.7588L110.112 15.7674C109.379 13.8277 107.181 10.207 102.655 10.207C98.1724 10.207 94.4224 13.7415 94.4224 18.957C94.4224 23.8708 98.1293 27.707 103.086 27.707C107.095 27.707 109.422 25.2501 110.371 23.8277L107.397 21.845C106.362 23.2243 104.983 24.2157 103.043 24.2157ZM102.784 13.4398C104.336 13.4398 105.672 14.2588 106.103 15.3794L98.2155 18.6553C98.1724 14.9484 100.802 13.4398 102.784 13.4398Z" fill="#EA4335"/>
</g>
<defs>
<clipPath id="clip0_1_671">
<rect width="110" height="34.6121" fill="white" transform="translate(0.5 0.853516)"/>
</clipPath>
</defs>
</svg>
